<svg width="320" height="56" viewBox="0 0 320 56" fill="none" xmlns="http://www.w3.org/2000/svg">
<path d="M315 46.356V42H319.136V46.356H315Z" fill="#F13024"/>
<path d="M10.7045 46.5284C9.04545 46.5284 7.55114 46.233 6.22159 45.642C4.90341 45.0398 3.85795 44.1534 3.08523 42.983C2.32386 41.8125 1.94318 40.3693 1.94318 38.6534C1.94318 37.1761 2.21591 35.9545 2.76136 34.9886C3.30682 34.0227 4.05114 33.25 4.99432 32.6705C5.9375 32.0909 7 31.6534 8.18182 31.358C9.375 31.0511 10.608 30.8295 11.8807 30.6932C13.4148 30.5341 14.6591 30.392 15.6136 30.267C16.5682 30.1307 17.2614 29.9261 17.6932 29.6534C18.1364 29.3693 18.358 28.9318 18.358 28.3409V28.2386C18.358 26.9545 17.9773 25.9602 17.2159 25.2557C16.4545 24.5511 15.358 24.1989 13.9261 24.1989C12.4148 24.1989 11.2159 24.5284 10.3295 25.1875C9.45455 25.8466 8.86364 26.625 8.55682 27.5227L2.79545 26.7045C3.25 25.1136 4 23.7841 5.04545 22.7159C6.09091 21.6364 7.36932 20.8295 8.88068 20.2955C10.392 19.75 12.0625 19.4773 13.892 19.4773C15.1534 19.4773 16.4091 19.625 17.6591 19.9205C18.9091 20.2159 20.0511 20.7045 21.0852 21.3864C22.1193 22.0568 22.9489 22.9716 23.5739 24.1307C24.2102 25.2898 24.5284 26.7386 24.5284 28.4773V46H18.5966V42.4034H18.392C18.017 43.1307 17.4886 43.8125 16.8068 44.4489C16.1364 45.0739 15.2898 45.5795 14.267 45.9659C13.2557 46.3409 12.0682 46.5284 10.7045 46.5284ZM12.3068 41.9943C13.5455 41.9943 14.6193 41.75 15.5284 41.2614C16.4375 40.7614 17.1364 40.1023 17.625 39.2841C18.125 38.4659 18.375 37.5739 18.375 36.608V33.5227C18.1818 33.6818 17.8523 33.8295 17.3864 33.9659C16.9318 34.1023 16.4205 34.2216 15.8523 34.3239C15.2841 34.4261 14.7216 34.517 14.1648 34.5966C13.608 34.6761 13.125 34.7443 12.7159 34.8011C11.7955 34.9261 10.9716 35.1307 10.2443 35.4148C9.51705 35.6989 8.94318 36.0966 8.52273 36.608C8.10227 37.108 7.89205 37.7557 7.89205 38.5511C7.89205 39.6875 8.30682 40.5455 9.13636 41.125C9.96591 41.7045 11.0227 41.9943 12.3068 41.9943ZM36.9034 30.6591V46H30.733V19.8182H36.6307V24.267H36.9375C37.5398 22.8011 38.5 21.6364 39.8182 20.7727C41.1477 19.9091 42.7898 19.4773 44.7443 19.4773C46.5511 19.4773 48.125 19.8636 49.4659 20.6364C50.8182 21.4091 51.8636 22.5284 52.6023 23.9943C53.3523 25.4602 53.7216 27.2386 53.7102 29.3295V46H47.5398V30.2841C47.5398 28.5341 47.0852 27.1648 46.1761 26.1761C45.2784 25.1875 44.0341 24.6932 42.4432 24.6932C41.3636 24.6932 40.4034 24.9318 39.5625 25.4091C38.733 25.875 38.0795 26.5511 37.6023 27.4375C37.1364 28.3239 36.9034 29.3977 36.9034 30.6591ZM76.6705 34.9886V19.8182H82.8409V46H76.858V41.3466H76.5852C75.9943 42.8125 75.0227 44.0114 73.6705 44.9432C72.3295 45.875 70.6761 46.3409 68.7102 46.3409C66.9943 46.3409 65.4773 45.9602 64.1591 45.1989C62.8523 44.4261 61.8295 43.3068 61.0909 41.8409C60.3523 40.3636 59.983 38.5795 59.983 36.4886V19.8182H66.1534V35.5341C66.1534 37.1932 66.608 38.5114 67.517 39.4886C68.4261 40.4659 69.6193 40.9545 71.0966 40.9545C72.0057 40.9545 72.8864 40.733 73.7386 40.2898C74.5909 39.8466 75.2898 39.1875 75.8352 38.3125C76.392 37.4261 76.6705 36.3182 76.6705 34.9886ZM89.1861 19.8182H95.3565V47.5C95.3565 49.3864 94.9986 50.9432 94.2827 52.1705C93.5668 53.3977 92.5327 54.3125 91.1804 54.9148C89.8281 55.517 88.1861 55.8182 86.2543 55.8182C86.027 55.8182 85.8168 55.8125 85.6236 55.8011C85.4304 55.8011 85.2202 55.7955 84.9929 55.7841V50.7557C85.1634 50.767 85.3168 50.7727 85.4531 50.7727C85.5895 50.7841 85.7315 50.7898 85.8793 50.7898C87.0611 50.7898 87.9077 50.5 88.419 49.9205C88.9304 49.3523 89.1861 48.517 89.1861 47.4148V19.8182ZM92.2543 16.1023C91.2656 16.1023 90.419 15.7784 89.7145 15.1307C89.0213 14.4716 88.6747 13.6818 88.6747 12.7614C88.6747 11.8295 89.0213 11.0398 89.7145 10.392C90.419 9.73295 91.2656 9.40341 92.2543 9.40341C93.2315 9.40341 94.0668 9.73295 94.7599 10.392C95.4645 11.0398 95.8168 11.8295 95.8168 12.7614C95.8168 13.6818 95.4645 14.4716 94.7599 15.1307C94.0668 15.7784 93.2315 16.1023 92.2543 16.1023ZM131.734 19.8182L122.171 46H118.933L109.37 19.8182H112.66L120.433 41.9943H120.671L128.444 19.8182H131.734ZM144.185 46.5966C142.606 46.5966 141.163 46.2898 139.856 45.6761C138.549 45.0511 137.509 44.1534 136.737 42.983C135.964 41.8011 135.577 40.3693 135.577 38.6875C135.577 37.392 135.822 36.3011 136.31 35.4148C136.799 34.5284 137.492 33.8011 138.39 33.233C139.288 32.6648 140.35 32.2159 141.577 31.8864C142.805 31.5568 144.157 31.3011 145.634 31.1193C147.1 30.9375 148.339 30.7784 149.35 30.642C150.373 30.5057 151.151 30.2898 151.685 29.9943C152.219 29.6989 152.487 29.2216 152.487 28.5625V27.9489C152.487 26.1648 151.952 24.7614 150.884 23.7386C149.827 22.7045 148.305 22.1875 146.316 22.1875C144.43 22.1875 142.89 22.6023 141.697 23.4318C140.515 24.2614 139.685 25.2386 139.208 26.3636L136.327 25.3239C136.918 23.892 137.737 22.75 138.782 21.8977C139.827 21.0341 140.998 20.4148 142.293 20.0398C143.589 19.6534 144.901 19.4602 146.231 19.4602C147.231 19.4602 148.271 19.5909 149.35 19.8523C150.441 20.1136 151.452 20.5682 152.384 21.2159C153.316 21.8523 154.072 22.7443 154.651 23.892C155.231 25.0284 155.521 26.4716 155.521 28.2216V46H152.487V41.858H152.299C151.935 42.6307 151.396 43.3807 150.68 44.108C149.964 44.8352 149.066 45.4318 147.987 45.8977C146.907 46.3636 145.64 46.5966 144.185 46.5966ZM144.594 43.8182C146.208 43.8182 147.606 43.4602 148.788 42.7443C149.969 42.0284 150.879 41.0795 151.515 39.8977C152.163 38.7045 152.487 37.392 152.487 35.9602V32.1761C152.259 32.392 151.879 32.5852 151.344 32.7557C150.822 32.9261 150.214 33.0795 149.521 33.2159C148.839 33.3409 148.157 33.4489 147.475 33.5398C146.793 33.6307 146.18 33.7102 145.634 33.7784C144.157 33.9602 142.896 34.2443 141.85 34.6307C140.805 35.017 140.004 35.5511 139.447 36.233C138.89 36.9034 138.612 37.767 138.612 38.8239C138.612 40.4148 139.18 41.6477 140.316 42.5227C141.452 43.3864 142.879 43.8182 144.594 43.8182ZM163.592 46V19.8182H166.54V23.8409H166.762C167.285 22.5227 168.194 21.4602 169.489 20.6534C170.796 19.8352 172.273 19.4261 173.921 19.4261C174.171 19.4261 174.45 19.4318 174.756 19.4432C175.063 19.4545 175.319 19.4659 175.523 19.4773V22.5625C175.387 22.5398 175.148 22.5057 174.808 22.4602C174.467 22.4148 174.097 22.392 173.7 22.392C172.336 22.392 171.12 22.6818 170.052 23.2614C168.995 23.8295 168.16 24.6193 167.546 25.6307C166.933 26.642 166.626 27.7955 166.626 29.0909V46H163.592ZM198.292 25.5625L195.513 26.3466C195.241 25.5625 194.854 24.8523 194.354 24.2159C193.854 23.5795 193.201 23.0739 192.394 22.6989C191.599 22.3239 190.61 22.1364 189.428 22.1364C187.656 22.1364 186.201 22.5568 185.065 23.3977C183.928 24.2386 183.36 25.3239 183.36 26.6534C183.36 27.7784 183.746 28.6932 184.519 29.3977C185.303 30.0909 186.508 30.642 188.133 31.0511L192.087 32.0227C194.281 32.5568 195.923 33.4034 197.013 34.5625C198.116 35.7216 198.667 37.1761 198.667 38.9261C198.667 40.4034 198.258 41.7159 197.44 42.8636C196.621 44.0114 195.479 44.9148 194.013 45.5739C192.559 46.2216 190.871 46.5455 188.951 46.5455C186.394 46.5455 184.286 45.9716 182.627 44.8239C180.968 43.6648 179.906 41.9943 179.44 39.8125L182.354 39.0966C182.729 40.6534 183.462 41.8295 184.553 42.625C185.656 43.4205 187.104 43.8182 188.9 43.8182C190.911 43.8182 192.519 43.3693 193.724 42.4716C194.928 41.5625 195.531 40.4261 195.531 39.0625C195.531 38.0057 195.178 37.1193 194.474 36.4034C193.769 35.6761 192.701 35.142 191.269 34.8011L186.991 33.7784C184.718 33.233 183.036 32.3693 181.945 31.1875C180.854 30.0057 180.309 28.5398 180.309 26.7898C180.309 25.3466 180.701 24.0795 181.485 22.9886C182.269 21.8864 183.349 21.0227 184.724 20.3977C186.099 19.7727 187.667 19.4602 189.428 19.4602C191.826 19.4602 193.741 20.0057 195.173 21.0966C196.616 22.1761 197.656 23.6648 198.292 25.5625ZM208.344 29.6364V46H205.31V11.0909H208.344V23.9261H208.617C209.231 22.5739 210.18 21.4943 211.464 20.6875C212.759 19.8807 214.396 19.4773 216.373 19.4773C218.146 19.4773 219.702 19.8409 221.043 20.5682C222.384 21.2955 223.43 22.3693 224.18 23.7898C224.93 25.2102 225.305 26.9602 225.305 29.0398V46H222.254V29.2273C222.254 27.0682 221.651 25.3693 220.447 24.1307C219.254 22.8807 217.64 22.2557 215.606 22.2557C214.208 22.2557 212.964 22.5511 211.873 23.142C210.782 23.733 209.918 24.5852 209.282 25.6989C208.657 26.8011 208.344 28.1136 208.344 29.6364ZM236.329 29.6364V46H233.295V19.8182H236.244V23.9261H236.516C237.13 22.5852 238.085 21.5114 239.38 20.7045C240.687 19.8864 242.3 19.4773 244.221 19.4773C245.982 19.4773 247.528 19.8466 248.857 20.5852C250.198 21.3125 251.238 22.3864 251.977 23.8068C252.727 25.2273 253.102 26.9716 253.102 29.0398V46H250.067V29.2273C250.067 27.0795 249.465 25.3807 248.261 24.1307C247.067 22.8807 245.465 22.2557 243.454 22.2557C242.079 22.2557 240.857 22.5511 239.789 23.142C238.721 23.733 237.874 24.5852 237.249 25.6989C236.636 26.8011 236.329 28.1136 236.329 29.6364ZM271.677 46.5455C269.234 46.5455 267.12 45.9773 265.336 44.8409C263.552 43.6932 262.171 42.108 261.194 40.0852C260.228 38.0511 259.745 35.7102 259.745 33.0625C259.745 30.4261 260.228 28.0852 261.194 26.0398C262.171 23.983 263.518 22.375 265.234 21.2159C266.961 20.0455 268.955 19.4602 271.217 19.4602C272.637 19.4602 274.006 19.7216 275.325 20.2443C276.643 20.7557 277.825 21.5455 278.87 22.6136C279.927 23.6705 280.762 25.0057 281.376 26.6193C281.989 28.2216 282.296 30.1193 282.296 32.3125V33.8125H261.842V31.1364H279.194C279.194 29.4545 278.853 27.9432 278.171 26.6023C277.501 25.25 276.563 24.1818 275.359 23.3977C274.165 22.6136 272.785 22.2216 271.217 22.2216C269.558 22.2216 268.097 22.6648 266.836 23.5511C265.575 24.4375 264.586 25.608 263.87 27.0625C263.165 28.517 262.808 30.108 262.796 31.8352V33.4375C262.796 35.517 263.154 37.3352 263.87 38.892C264.597 40.4375 265.626 41.6364 266.955 42.4886C268.285 43.3409 269.859 43.767 271.677 43.767C272.915 43.767 274.001 43.5739 274.933 43.1875C275.876 42.8011 276.665 42.2841 277.302 41.6364C277.95 40.9773 278.438 40.2557 278.768 39.4716L281.648 40.4091C281.251 41.5114 280.597 42.5284 279.688 43.4602C278.79 44.392 277.665 45.142 276.313 45.7102C274.972 46.267 273.427 46.5455 271.677 46.5455ZM290.299 55.8182C289.697 55.8182 289.134 55.7614 288.612 55.6477C288.089 55.5341 287.674 55.4091 287.367 55.2727L288.185 52.5966C289.219 52.9148 290.14 53.0284 290.947 52.9375C291.754 52.858 292.469 52.4943 293.094 51.8466C293.719 51.2102 294.276 50.233 294.765 48.9148L295.719 46.2557L286.089 19.8182H289.379L297.151 41.9943H297.39L305.163 19.8182H308.452L297.373 50.142C296.907 51.4034 296.333 52.4545 295.651 53.2955C294.969 54.1477 294.18 54.7784 293.282 55.1875C292.396 55.608 291.401 55.8182 290.299 55.8182Z" fill="white"/>
</svg>
